<mxfile host="app.diagrams.net" modified="2024-06-09T20:12:43.815Z" agent="Mozilla/5.0 (Windows NT 10.0; Win64; x64) AppleWebKit/537.36 (KHTML, like Gecko) Chrome/125.0.0.0 Safari/537.36" etag="GbHOTNG10aOY_ZOzvV0a" version="24.5.2" type="device">
  <diagram name="Page-1" id="52a04d89-c75d-2922-d76d-85b35f80e030">
    <mxGraphModel dx="2599" dy="686" grid="1" gridSize="10" guides="1" tooltips="1" connect="1" arrows="1" fold="1" page="1" pageScale="1" pageWidth="1100" pageHeight="850" background="none" math="0" shadow="0">
      <root>
        <mxCell id="0" />
        <mxCell id="1" parent="0" />
        <mxCell id="i_tDfDI3gjbikVPYm0I--43" style="edgeStyle=orthogonalEdgeStyle;rounded=0;orthogonalLoop=1;jettySize=auto;html=1;" edge="1" parent="1" source="i_tDfDI3gjbikVPYm0I--4" target="i_tDfDI3gjbikVPYm0I--44">
          <mxGeometry relative="1" as="geometry">
            <mxPoint x="250" y="380" as="targetPoint" />
          </mxGeometry>
        </mxCell>
        <mxCell id="i_tDfDI3gjbikVPYm0I--4" value="" style="rounded=0;whiteSpace=wrap;html=1;fillColor=none;container=0;" vertex="1" parent="1">
          <mxGeometry x="50" y="90" width="420" height="200" as="geometry" />
        </mxCell>
        <mxCell id="i_tDfDI3gjbikVPYm0I--25" style="edgeStyle=orthogonalEdgeStyle;rounded=0;orthogonalLoop=1;jettySize=auto;html=1;" edge="1" parent="1" source="i_tDfDI3gjbikVPYm0I--1" target="i_tDfDI3gjbikVPYm0I--22">
          <mxGeometry relative="1" as="geometry" />
        </mxCell>
        <mxCell id="i_tDfDI3gjbikVPYm0I--1" value="&lt;div&gt;&lt;span style=&quot;background-color: initial;&quot;&gt;Rasaii et al. (2023)&lt;/span&gt;&lt;br&gt;&lt;/div&gt;&lt;div&gt;&lt;span style=&quot;background-color: initial;&quot;&gt;N = 285&lt;/span&gt;&lt;/div&gt;" style="rounded=0;whiteSpace=wrap;html=1;container=0;" vertex="1" parent="1">
          <mxGeometry x="70" y="130" width="110" height="40" as="geometry" />
        </mxCell>
        <mxCell id="i_tDfDI3gjbikVPYm0I--27" style="edgeStyle=orthogonalEdgeStyle;rounded=0;orthogonalLoop=1;jettySize=auto;html=1;" edge="1" parent="1" source="i_tDfDI3gjbikVPYm0I--2" target="i_tDfDI3gjbikVPYm0I--24">
          <mxGeometry relative="1" as="geometry" />
        </mxCell>
        <mxCell id="i_tDfDI3gjbikVPYm0I--2" value="Morel et al. (2023)&lt;div&gt;N = 431&lt;/div&gt;" style="rounded=0;whiteSpace=wrap;html=1;container=0;" vertex="1" parent="1">
          <mxGeometry x="70" y="180" width="110" height="40" as="geometry" />
        </mxCell>
        <mxCell id="i_tDfDI3gjbikVPYm0I--28" style="edgeStyle=orthogonalEdgeStyle;rounded=0;orthogonalLoop=1;jettySize=auto;html=1;exitX=1;exitY=0.5;exitDx=0;exitDy=0;entryX=0;entryY=0.5;entryDx=0;entryDy=0;" edge="1" parent="1" source="i_tDfDI3gjbikVPYm0I--3" target="i_tDfDI3gjbikVPYm0I--23">
          <mxGeometry relative="1" as="geometry" />
        </mxCell>
        <mxCell id="i_tDfDI3gjbikVPYm0I--3" value="Fransen (2024)&lt;div&gt;N = 3&lt;/div&gt;" style="rounded=0;whiteSpace=wrap;html=1;container=0;" vertex="1" parent="1">
          <mxGeometry x="70" y="230" width="110" height="40" as="geometry" />
        </mxCell>
        <mxCell id="i_tDfDI3gjbikVPYm0I--5" value="Pay-or-okay website from research (see 3.1.1)" style="text;html=1;align=center;verticalAlign=middle;whiteSpace=wrap;rounded=0;container=0;" vertex="1" parent="1">
          <mxGeometry x="177.5" y="90" width="165" height="30" as="geometry" />
        </mxCell>
        <mxCell id="i_tDfDI3gjbikVPYm0I--26" style="edgeStyle=orthogonalEdgeStyle;rounded=0;orthogonalLoop=1;jettySize=auto;html=1;" edge="1" parent="1" source="i_tDfDI3gjbikVPYm0I--22" target="i_tDfDI3gjbikVPYm0I--24">
          <mxGeometry relative="1" as="geometry" />
        </mxCell>
        <mxCell id="i_tDfDI3gjbikVPYm0I--22" value="Get the prices" style="rounded=0;whiteSpace=wrap;html=1;" vertex="1" parent="1">
          <mxGeometry x="207.5" y="130" width="110" height="40" as="geometry" />
        </mxCell>
        <mxCell id="i_tDfDI3gjbikVPYm0I--29" style="edgeStyle=orthogonalEdgeStyle;rounded=0;orthogonalLoop=1;jettySize=auto;html=1;exitX=1;exitY=0.5;exitDx=0;exitDy=0;entryX=0.5;entryY=1;entryDx=0;entryDy=0;" edge="1" parent="1" source="i_tDfDI3gjbikVPYm0I--23" target="i_tDfDI3gjbikVPYm0I--24">
          <mxGeometry relative="1" as="geometry" />
        </mxCell>
        <mxCell id="i_tDfDI3gjbikVPYm0I--23" value="Get the prices" style="rounded=0;whiteSpace=wrap;html=1;" vertex="1" parent="1">
          <mxGeometry x="205" y="230" width="110" height="40" as="geometry" />
        </mxCell>
        <mxCell id="i_tDfDI3gjbikVPYm0I--24" value="Make one dataset &amp;amp; remove duplicates" style="rounded=0;whiteSpace=wrap;html=1;" vertex="1" parent="1">
          <mxGeometry x="330" y="180" width="120" height="40" as="geometry" />
        </mxCell>
        <mxCell id="i_tDfDI3gjbikVPYm0I--47" style="edgeStyle=orthogonalEdgeStyle;rounded=0;orthogonalLoop=1;jettySize=auto;html=1;" edge="1" parent="1" source="i_tDfDI3gjbikVPYm0I--31" target="i_tDfDI3gjbikVPYm0I--48">
          <mxGeometry relative="1" as="geometry">
            <mxPoint x="260" y="620" as="targetPoint" />
          </mxGeometry>
        </mxCell>
        <mxCell id="i_tDfDI3gjbikVPYm0I--31" value="Cross-reference the URL of the pay-or-okay website with the available websites from the WhoTracks.Me database&lt;div&gt;&lt;br&gt;&lt;/div&gt;&lt;div&gt;N = 338&lt;/div&gt;" style="rounded=0;whiteSpace=wrap;html=1;" vertex="1" parent="1">
          <mxGeometry x="150" y="491.43" width="220" height="80" as="geometry" />
        </mxCell>
        <mxCell id="i_tDfDI3gjbikVPYm0I--36" style="edgeStyle=orthogonalEdgeStyle;rounded=0;orthogonalLoop=1;jettySize=auto;html=1;entryX=0;entryY=0.5;entryDx=0;entryDy=0;" edge="1" parent="1" source="i_tDfDI3gjbikVPYm0I--12" target="i_tDfDI3gjbikVPYm0I--31">
          <mxGeometry relative="1" as="geometry" />
        </mxCell>
        <mxCell id="i_tDfDI3gjbikVPYm0I--11" value="" style="group" vertex="1" connectable="0" parent="1">
          <mxGeometry x="-120" y="480" width="155" height="120" as="geometry" />
        </mxCell>
        <mxCell id="i_tDfDI3gjbikVPYm0I--12" value="" style="rounded=0;whiteSpace=wrap;html=1;fillColor=none;" vertex="1" parent="i_tDfDI3gjbikVPYm0I--11">
          <mxGeometry x="14.090909090909092" y="-17.142857142857142" width="140.9090909090909" height="137.14285714285714" as="geometry" />
        </mxCell>
        <mxCell id="i_tDfDI3gjbikVPYm0I--13" value="Website information (see 3.1.2)" style="text;html=1;align=center;verticalAlign=middle;whiteSpace=wrap;rounded=0;" vertex="1" parent="i_tDfDI3gjbikVPYm0I--11">
          <mxGeometry x="23.015151515151516" width="124.46969696969698" height="18" as="geometry" />
        </mxCell>
        <mxCell id="i_tDfDI3gjbikVPYm0I--6" value="WhoTracks.Me websites database&lt;div&gt;N = 10.000 (for each region)&lt;/div&gt;" style="rounded=0;whiteSpace=wrap;html=1;" vertex="1" parent="i_tDfDI3gjbikVPYm0I--11">
          <mxGeometry x="32.87878787878788" y="34.285714285714285" width="103.33333333333334" height="68.57142857142857" as="geometry" />
        </mxCell>
        <mxCell id="i_tDfDI3gjbikVPYm0I--42" value="" style="group" vertex="1" connectable="0" parent="1">
          <mxGeometry x="-122" y="297" width="165" height="146" as="geometry" />
        </mxCell>
        <mxCell id="i_tDfDI3gjbikVPYm0I--19" value="" style="group" vertex="1" connectable="0" parent="i_tDfDI3gjbikVPYm0I--42">
          <mxGeometry width="165" height="146" as="geometry" />
        </mxCell>
        <mxCell id="i_tDfDI3gjbikVPYm0I--20" value="" style="rounded=0;whiteSpace=wrap;html=1;fillColor=none;" vertex="1" parent="i_tDfDI3gjbikVPYm0I--19">
          <mxGeometry x="7.5" width="150" height="146" as="geometry" />
        </mxCell>
        <mxCell id="i_tDfDI3gjbikVPYm0I--21" value="Bundle subscriptions websites (see 3.1.3)" style="text;html=1;align=center;verticalAlign=middle;whiteSpace=wrap;rounded=0;" vertex="1" parent="i_tDfDI3gjbikVPYm0I--19">
          <mxGeometry x="7.5" y="6" width="150" height="21.9" as="geometry" />
        </mxCell>
        <mxCell id="i_tDfDI3gjbikVPYm0I--16" value="&lt;div&gt;Freechoice&lt;/div&gt;&lt;div&gt;N = 234&lt;/div&gt;" style="rounded=0;whiteSpace=wrap;html=1;" vertex="1" parent="i_tDfDI3gjbikVPYm0I--42">
          <mxGeometry x="25.5" y="40" width="110" height="40" as="geometry" />
        </mxCell>
        <mxCell id="i_tDfDI3gjbikVPYm0I--17" value="Contentpass&lt;div&gt;N = 450&lt;/div&gt;" style="rounded=0;whiteSpace=wrap;html=1;" vertex="1" parent="i_tDfDI3gjbikVPYm0I--42">
          <mxGeometry x="25.5" y="90" width="110" height="40" as="geometry" />
        </mxCell>
        <mxCell id="i_tDfDI3gjbikVPYm0I--46" style="edgeStyle=orthogonalEdgeStyle;rounded=0;orthogonalLoop=1;jettySize=auto;html=1;" edge="1" parent="1" source="i_tDfDI3gjbikVPYm0I--44" target="i_tDfDI3gjbikVPYm0I--31">
          <mxGeometry relative="1" as="geometry" />
        </mxCell>
        <mxCell id="i_tDfDI3gjbikVPYm0I--44" value="Add Freechoice and Contentpass websites to research dataset and remove duplicates&lt;div&gt;N = 968&lt;/div&gt;" style="rounded=0;whiteSpace=wrap;html=1;" vertex="1" parent="1">
          <mxGeometry x="170" y="325" width="180" height="90" as="geometry" />
        </mxCell>
        <mxCell id="i_tDfDI3gjbikVPYm0I--45" style="edgeStyle=orthogonalEdgeStyle;rounded=0;orthogonalLoop=1;jettySize=auto;html=1;entryX=0;entryY=0.5;entryDx=0;entryDy=0;" edge="1" parent="1" source="i_tDfDI3gjbikVPYm0I--20" target="i_tDfDI3gjbikVPYm0I--44">
          <mxGeometry relative="1" as="geometry" />
        </mxCell>
        <mxCell id="i_tDfDI3gjbikVPYm0I--51" style="edgeStyle=orthogonalEdgeStyle;rounded=0;orthogonalLoop=1;jettySize=auto;html=1;entryX=0.5;entryY=0;entryDx=0;entryDy=0;" edge="1" parent="1" source="i_tDfDI3gjbikVPYm0I--48" target="i_tDfDI3gjbikVPYm0I--50">
          <mxGeometry relative="1" as="geometry" />
        </mxCell>
        <mxCell id="i_tDfDI3gjbikVPYm0I--48" value="Clean the data by removing four outdated entries&lt;div&gt;N = 334&lt;/div&gt;" style="rounded=0;whiteSpace=wrap;html=1;" vertex="1" parent="1">
          <mxGeometry x="200" y="630" width="120" height="70" as="geometry" />
        </mxCell>
        <mxCell id="i_tDfDI3gjbikVPYm0I--50" value="Final dataset" style="rounded=0;whiteSpace=wrap;html=1;" vertex="1" parent="1">
          <mxGeometry x="200" y="770" width="120" height="60" as="geometry" />
        </mxCell>
      </root>
    </mxGraphModel>
  </diagram>
</mxfile>
